<?xml version="1.0" encoding="iso-8859-1"?>
<!-- Generator: Adobe Illustrator 17.1.0, SVG Export Plug-In . SVG Version: 6.00 Build 0)  -->
<!DOCTYPE svg PUBLIC "-//W3C//DTD SVG 1.1//EN" "http://www.w3.org/Graphics/SVG/1.1/DTD/svg11.dtd">
<svg version="1.1" id="Capa_1" xmlns="http://www.w3.org/2000/svg" xmlns:xlink="http://www.w3.org/1999/xlink" x="0px" y="0px"
	 viewBox="0 0 369.035 369.035" style="enable-background:new 0 0 369.035 369.035;" xml:space="preserve">
<g>
	<path d="M369.035,186.444c0-21.958-9.759-42.531-26.773-56.446c-3.204-2.62-7.931-2.149-10.554,1.058
		c-2.622,3.207-2.148,7.932,1.058,10.554c13.518,11.054,21.27,27.396,21.27,44.835c0,30.902-24.201,56.299-55.096,57.816
		c-2.486,0.123-4.751,1.471-6.043,3.599s-1.443,4.759-0.404,7.022c3.526,7.68,5.314,15.798,5.314,24.127
		c0,31.966-26.006,57.972-57.972,57.972c-20.444,0-38.991-10.509-49.612-28.112c-1.357-2.25-3.794-3.625-6.422-3.625
		s-5.064,1.375-6.422,3.625c-10.621,17.603-29.168,28.112-49.613,28.112c-28.594,0-53.255-21.299-57.364-49.543
		c-0.597-4.099-4.402-6.94-8.502-6.342c-4.099,0.596-6.938,4.403-6.342,8.502c2.5,17.18,11.117,32.957,24.264,44.424
		c13.278,11.581,30.306,17.959,47.944,17.959c22.012,0,42.271-9.664,56.035-26.303c13.764,16.64,34.022,26.303,56.034,26.303
		c40.236,0,72.972-32.735,72.972-72.972c0-7.143-1.039-14.156-3.099-20.949C343.683,251.665,369.035,221.94,369.035,186.444z"/>
	<path d="M68.335,259.182c3.902,0,7.195-3.021,7.474-6.974c0.291-4.132-2.823-7.717-6.955-8.008
		C38.655,242.074,15,216.705,15,186.444c0-31.098,24.361-56.502,55.461-57.836c2.583-0.111,4.926-1.543,6.202-3.792
		c1.275-2.249,1.304-4.995,0.074-7.269c-4.543-8.401-6.943-17.918-6.943-27.522c0-31.966,26.006-57.972,57.972-57.972
		c20.444,0,38.992,10.509,49.613,28.112c1.358,2.25,3.794,3.625,6.422,3.625s5.063-1.375,6.422-3.625
		c10.621-17.603,29.168-28.112,49.612-28.112c31.966,0,57.972,26.006,57.972,57.972c0,9.576-2.391,19.072-6.912,27.46
		c-1.966,3.646-0.604,8.195,3.043,10.161c3.646,1.965,8.195,0.602,10.16-3.043c5.697-10.569,8.709-22.525,8.709-34.578
		c0-40.237-32.735-72.972-72.972-72.972c-22.012,0-42.271,9.664-56.034,26.303c-13.764-16.64-34.023-26.303-56.035-26.303
		c-40.236,0-72.972,32.735-72.972,72.972c0,8.477,1.487,16.902,4.351,24.831C25.234,121.306,0,150.926,0,186.444
		c0,38.101,29.781,70.042,67.801,72.718C67.979,259.175,68.158,259.182,68.335,259.182z"/>
</g>
<g>
</g>
<g>
</g>
<g>
</g>
<g>
</g>
<g>
</g>
<g>
</g>
<g>
</g>
<g>
</g>
<g>
</g>
<g>
</g>
<g>
</g>
<g>
</g>
<g>
</g>
<g>
</g>
<g>
</g>
</svg>
